#N canvas -10 60 1920 976 12;
#X obj 217 335 noise~;
#X obj 217 557 *~;
#X msg 290 452 0;
#X msg 276 522 1;
#X obj 218 655 *~ 1;
#X obj 197 703 *~ 0.1;
#X obj 191 801 dac~;
#X obj 325 636 bng 19 250 50 0 empty empty empty 0 -10 0 12 #fcfcfc #000000 #000000;
#X obj 332 401 tgl 19 0 empty empty empty 0 -10 0 12 #fcfcfc #000000 #000000 0 1;
#X obj 256 782 tabwrite~ my_array;
#X obj 155 529 hip~ 3000;
#X obj 414 558 *~;
#X msg 522 439 0;
#X msg 525 511 1;
#X obj 566 612 bng 19 250 50 0 empty empty empty 0 -10 0 12 #fcfcfc #000000 #000000;
#X obj 604 412 tgl 19 0 empty empty empty 0 -10 0 12 #fcfcfc #000000 #000000 0 1;
#X obj 608 758 tabwrite~ my_array;
#X obj 663 510 metro 500;
#X obj 550 83 tgl 19 0 empty empty empty 0 -10 0 12 #fcfcfc #000000 #000000 0 1;
#X obj 665 578 delay 65;
#X obj 513 268 int;
#X floatatom 513 292 5 0 0 0 - - - 0;
#X floatatom 513 339 5 0 0 0 - - - 0;
#X floatatom 513 386 5 0 0 0 - - - 0;
#X obj 481 198 bng 19 250 50 0 empty empty empty 0 -10 0 12 #fcfcfc #000000 #000000;
#X msg 842 234 0;
#X obj 583 266 + 1;
#X obj 513 315 % 4;
#X obj 514 362 + 1;
#X obj 513 409 * 72;
#X text 435 388 bassline;
#X text 114 607 hat;
#X obj 961 416 bng 19 250 50 0 empty empty empty 0 -10 0 12 #fcfcfc #000000 #000000;
#X floatatom 962 481 5 0 0 0 - - - 0;
#X obj 962 504 * 72;
#X obj 896 551 osc~;
#X obj 1097 560 * 2;
#X obj 1097 584 osc~;
#X obj 960 368 metro 125;
#X obj 951 307 tgl 19 0 empty empty empty 0 -10 0 12 #fcfcfc #000000 #000000 0 1;
#X obj 1069 644 *~ 0.5;
#X obj 255 578 tgl 19 0 empty empty empty 0 -10 0 12 #fcfcfc #000000 #000000 0 1;
#X obj 435 418 phasor~ 480;
#X obj 960 448 random 6;
#X text 896 427 melody;
#X obj 358 591 delay 65;
#X obj 340 520 metro 250;
#X text 1355 262 creation arguments are OSC address;
#X text 1357 223 set message to change OSC address;
#X text 1342 33 1 Set IP Address : network address;
#X text 1342 53 2 Set Ports (sending and listening);
#X text 1342 72 3 Set OSC Addresses (routing osc data;
#X text 1333 11 Key Settings;
#X floatatom 1221 179 5 0 0 0 - - - 0;
#N canvas 463 72 1352 1019 oscReceive 1;
#X obj 55 184 netreceive -u -b;
#X msg 78 143 listen 0;
#X text 152 143 stop listening;
#X text 64 58 packets from network;
#X text 173 177 UDP packets \, binary output, f 13;
#X obj 45 314 print;
#X obj 45 272 oscparse;
#X text 150 114 listen on port 8000;
#X obj 177 269 oscparse;
#X obj 177 293 list trim;
#X floatatom 93 410 5 0 0 0 - - - 0;
#X text 241 267 Parse the OSC message;
#X obj 177 319 route unity;
#X msg 66 115 listen 8000;
#X obj 66 84 loadbang;
#X floatatom 197 412 5 0 0 0 - - - 0;
#X floatatom 329 404 5 0 0 0 - - - 0;
#X floatatom 427 404 5 0 0 0 - - - 0;
#X obj 426 381 route colwall;
#X obj 427 431 s oscwall;
#X obj 535 380 route xPos;
#X floatatom 534 408 5 0 0 0 - - - 0;
#X floatatom 617 411 5 0 0 0 - - - 0;
#X obj 617 381 route zPos;
#X obj 534 439 s oscXPos;
#X obj 616 438 s oscZPos;
#X obj 93 437 s isWalking;
#X obj 80 384 route walking;
#X obj 195 383 route playMusic;
#X obj 197 439 s musicPlaying;
#X obj 328 381 route gunshot;
#X obj 329 431 s shot;
#X connect 0 0 6 0;
#X connect 0 0 8 0;
#X connect 1 0 0 0;
#X connect 6 0 5 0;
#X connect 8 0 9 0;
#X connect 9 0 12 0;
#X connect 10 0 26 0;
#X connect 12 0 18 0;
#X connect 12 0 20 0;
#X connect 12 0 23 0;
#X connect 12 0 27 0;
#X connect 12 0 28 0;
#X connect 12 0 30 0;
#X connect 13 0 0 0;
#X connect 14 0 13 0;
#X connect 15 0 29 0;
#X connect 16 0 31 0;
#X connect 17 0 19 0;
#X connect 18 0 17 0;
#X connect 20 0 21 0;
#X connect 21 0 24 0;
#X connect 22 0 25 0;
#X connect 23 0 22 0;
#X connect 27 0 10 0;
#X connect 28 0 15 0;
#X connect 30 0 16 0;
#X restore 1226 127 pd oscReceive;
#X obj 1225 21 tgl 15 0 empty empty empty 17 7 0 10 #fcfcfc #000000 #000000 0 1;
#X msg 1225 46 \; pd dsp \$1;
#X obj 1222 263 oscformat PD message;
#X msg 1254 224 set PD message;
#N canvas 432 132 936 737 oscSend 0;
#X msg 158 207 disconnect;
#X obj 61 253 netsend -u -b;
#X obj 59 55 list prepend send;
#X obj 59 80 list trim;
#X msg 150 175 connect 127.0.0.1 8001;
#X obj 59 29 r oscOut;
#X text 301 163 send to port 8001;
#X msg 147 148 connect localhost 8001;
#X obj 147 108 loadbang;
#X connect 0 0 1 0;
#X connect 2 0 3 0;
#X connect 3 0 1 0;
#X connect 4 0 1 0;
#X connect 5 0 2 0;
#X connect 7 0 1 0;
#X connect 8 0 7 0;
#X restore 1225 103 pd oscSend;
#X obj 1222 298 s oscOut;
#N canvas -251 92 1920 976 sfx_dead 0;
#X obj 427 565 vline~;
#X obj 291 601 *~;
#X obj 308 647 dac~;
#X obj 341 362 bng 15 250 50 0 empty empty empty 17 7 0 10 #fcfcfc #000000 #000000;
#X obj 295 506 *~ 1000;
#X obj 302 465 osc~;
#X obj 282 553 clip~ 0 1;
#X obj 321 429 mtof;
#X obj 404 363 bng 15 250 50 0 empty empty empty 17 7 0 10 #fcfcfc #000000 #000000;
#X obj 493 361 bng 15 250 50 0 empty empty empty 17 7 0 10 #fcfcfc #000000 #000000;
#X obj 391 397 delay 100;
#X msg 323 405 75;
#X msg 391 432 56;
#X msg 452 430 1 0 \, 0 275 0;
#X obj 342 242 select 0 1 2;
#X obj 336 156 bng 19 250 50 0 empty empty empty 0 -10 0 12 #fcfcfc #000000 #000000;
#X obj 337 122 inlet;
#X obj 339 191 random 3;
#X connect 0 0 1 1;
#X connect 1 0 2 0;
#X connect 1 0 2 1;
#X connect 3 0 13 0;
#X connect 3 0 11 0;
#X connect 4 0 6 0;
#X connect 5 0 4 0;
#X connect 6 0 1 0;
#X connect 7 0 5 0;
#X connect 8 0 13 0;
#X connect 8 0 11 0;
#X connect 8 0 10 0;
#X connect 9 0 13 0;
#X connect 10 0 12 0;
#X connect 11 0 7 0;
#X connect 12 0 7 0;
#X connect 13 0 0 0;
#X connect 14 0 3 0;
#X connect 14 1 8 0;
#X connect 14 2 9 0;
#X connect 14 3 3 0;
#X connect 14 3 8 0;
#X connect 14 3 9 0;
#X connect 15 0 17 0;
#X connect 16 0 15 0;
#X connect 17 0 14 0;
#X restore 1248 421 pd sfx_dead;
#N canvas -142 9 1920 976 sfx_footstep 0;
#X obj 179 318 osc~;
#X obj 177 435 *~;
#X obj 188 499 dac~;
#X obj 228 204 bng 19 250 50 0 empty empty empty 0 -10 0 12 #fcfcfc #000000 #000000;
#X obj 393 371 vline~;
#X obj 177 344 *~ 1000;
#X msg 206 242 40;
#X obj 173 385 clip~ 0 0.6;
#X msg 413 294 1 10 \, 0 20 10;
#X obj 224 63 inlet;
#X obj 224 99 tgl 19 0 empty empty empty 0 -10 0 12 #fcfcfc #000000 #000000 0 1;
#X obj 224 122 metro 250;
#X connect 0 0 5 0;
#X connect 1 0 2 0;
#X connect 1 0 2 1;
#X connect 3 0 6 0;
#X connect 3 0 8 0;
#X connect 4 0 1 1;
#X connect 5 0 7 0;
#X connect 6 0 0 0;
#X connect 7 0 1 0;
#X connect 8 0 4 0;
#X connect 9 0 10 0;
#X connect 10 0 11 0;
#X connect 11 0 3 0;
#X restore 1348 425 pd sfx_footstep;
#N canvas 44 -27 1920 976 sfx_gunshot 0;
#X obj 396 328 vline~;
#X obj 285 364 *~;
#X obj 277 460 dac~;
#X obj 309 125 bng 15 250 50 0 empty empty empty 17 7 0 10 #fcfcfc #000000 #000000;
#X obj 286 221 noise~;
#X obj 284 277 *~ 1000;
#N canvas 654 306 740 505 reverb 0;
#X obj 162 49 inlet~;
#X obj 144 364 outlet~;
#X floatatom 444 156 0 0 120 0 - - - 0;
#X text 485 156 level \, dB;
#X floatatom 472 173 0 0 100 0 - - - 0;
#X text 513 173 liveness \, 0-100;
#X floatatom 507 197 4 0 5000 0 - - - 0;
#X floatatom 542 220 0 0 100 0 - - - 0;
#X text 555 195 crossover frequency \, Hz.;
#X text 578 222 HF damping \, percent;
#X obj 235 233 rev3~ 100 90 3000 20;
#X obj 247 331 *~;
#X floatatom 317 299 5 0 0 0 - - - 0;
#X obj 26 288 *~;
#X floatatom 66 261 5 0 0 0 - - - 0;
#X text 355 299 wet reverb signal;
#X text 103 264 "dry" signal;
#X obj 409 32 receive reverbWetDry;
#X floatatom 410 59 5 0 0 0 - - - 0;
#X obj 82 215 expr 1 - $f1;
#X obj 340 3 loadbang;
#X msg 340 33 0.2;
#X connect 0 0 13 0;
#X connect 0 0 10 0;
#X connect 2 0 10 2;
#X connect 4 0 10 3;
#X connect 6 0 10 4;
#X connect 7 0 10 5;
#X connect 10 0 11 0;
#X connect 10 1 11 0;
#X connect 10 2 11 0;
#X connect 10 3 11 0;
#X connect 11 0 1 0;
#X connect 12 0 11 1;
#X connect 13 0 1 0;
#X connect 14 0 13 1;
#X connect 17 0 18 0;
#X connect 18 0 12 0;
#X connect 18 0 19 0;
#X connect 19 0 14 0;
#X connect 20 0 21 0;
#X connect 21 0 18 0;
#X restore 272 405 pd reverb;
#X obj 283 318 clip~ 0 1;
#X msg 420 193 1 0 \, 0 100 0 \, 0.3 50 150 \, 0 100 250;
#X obj 305 84 inlet;
#X connect 0 0 1 1;
#X connect 1 0 6 0;
#X connect 3 0 4 0;
#X connect 3 0 8 0;
#X connect 4 0 5 0;
#X connect 5 0 7 0;
#X connect 6 0 2 0;
#X connect 6 0 2 1;
#X connect 7 0 1 0;
#X connect 8 0 0 0;
#X connect 9 0 3 0;
#X restore 1263 518 pd sfx_gunshot;
#X obj 544 42 r musicPlaying;
#X obj 1347 385 r isWalking;
#X obj 1261 476 r shot;
#X connect 0 0 10 0;
#X connect 1 0 4 0;
#X connect 2 0 1 1;
#X connect 3 0 1 1;
#X connect 4 0 5 0;
#X connect 5 0 6 0;
#X connect 5 0 6 1;
#X connect 7 0 9 0;
#X connect 8 0 46 0;
#X connect 10 0 1 0;
#X connect 11 0 4 0;
#X connect 12 0 11 1;
#X connect 13 0 11 1;
#X connect 14 0 16 0;
#X connect 15 0 17 0;
#X connect 17 0 14 0;
#X connect 17 0 13 0;
#X connect 17 0 19 0;
#X connect 17 0 24 0;
#X connect 18 0 8 0;
#X connect 18 0 15 0;
#X connect 18 0 39 0;
#X connect 18 0 41 0;
#X connect 19 0 12 0;
#X connect 20 0 21 0;
#X connect 20 0 26 0;
#X connect 21 0 27 0;
#X connect 22 0 28 0;
#X connect 23 0 29 0;
#X connect 24 0 20 0;
#X connect 25 0 20 1;
#X connect 26 0 20 1;
#X connect 27 0 22 0;
#X connect 28 0 23 0;
#X connect 29 0 42 0;
#X connect 32 0 43 0;
#X connect 33 0 34 0;
#X connect 34 0 35 0;
#X connect 34 0 36 0;
#X connect 35 0 4 0;
#X connect 36 0 37 0;
#X connect 37 0 40 0;
#X connect 38 0 32 0;
#X connect 39 0 38 0;
#X connect 40 0 4 0;
#X connect 41 0 4 1;
#X connect 42 0 11 0;
#X connect 43 0 33 0;
#X connect 45 0 2 0;
#X connect 46 0 7 0;
#X connect 46 0 3 0;
#X connect 46 0 45 0;
#X connect 53 0 57 0;
#X connect 55 0 56 0;
#X connect 57 0 60 0;
#X connect 58 0 57 0;
#X connect 64 0 18 0;
#X connect 65 0 62 0;
#X connect 66 0 63 0;
