#N canvas 304 103 1920 997 12;
#X obj 217 335 noise~;
#X obj 217 557 *~;
#X msg 290 452 0;
#X msg 276 522 1;
#X obj 218 655 *~ 1;
#X obj 197 703 *~ 0.1;
#X obj 191 801 dac~;
#X obj 325 636 bng 19 250 50 0 empty empty empty 0 -10 0 12 #fcfcfc #000000 #000000;
#X obj 332 401 tgl 19 0 empty empty empty 0 -10 0 12 #fcfcfc #000000 #000000 0 1;
#X obj 256 782 tabwrite~ my_array;
#X obj 155 529 hip~ 3000;
#X obj 414 558 *~;
#X msg 522 439 0;
#X msg 525 511 1;
#X obj 566 612 bng 19 250 50 0 empty empty empty 0 -10 0 12 #fcfcfc #000000 #000000;
#X obj 604 412 tgl 19 0 empty empty empty 0 -10 0 12 #fcfcfc #000000 #000000 0 1;
#X obj 608 758 tabwrite~ my_array;
#X obj 663 510 metro 500;
#X obj 550 83 tgl 19 0 empty empty empty 0 -10 0 12 #fcfcfc #000000 #000000 0 1;
#X obj 665 578 delay 65;
#X obj 513 268 int;
#X floatatom 513 292 5 0 0 0 - - - 0;
#X floatatom 513 339 5 0 0 0 - - - 0;
#X floatatom 513 386 5 0 0 0 - - - 0;
#X obj 481 198 bng 19 250 50 0 empty empty empty 0 -10 0 12 #fcfcfc #000000 #000000;
#X msg 842 234 0;
#X obj 583 266 + 1;
#X obj 513 315 % 4;
#X obj 514 362 + 1;
#X obj 513 409 * 72;
#X text 435 388 bassline;
#X text 114 607 hat;
#X obj 961 416 bng 19 250 50 0 empty empty empty 0 -10 0 12 #fcfcfc #000000 #000000;
#X floatatom 962 481 5 0 0 0 - - - 0;
#X obj 962 504 * 72;
#X obj 896 551 osc~;
#X obj 1097 560 * 2;
#X obj 1097 584 osc~;
#X obj 960 368 metro 125;
#X obj 951 307 tgl 19 0 empty empty empty 0 -10 0 12 #fcfcfc #000000 #000000 0 1;
#X obj 1069 644 *~ 0.5;
#X obj 255 578 tgl 19 0 empty empty empty 0 -10 0 12 #fcfcfc #000000 #000000 0 1;
#X obj 435 418 phasor~ 480;
#X obj 960 448 random 6;
#X text 896 427 melody;
#X obj 358 591 delay 65;
#X obj 340 520 metro 250;
#X connect 0 0 10 0;
#X connect 1 0 4 0;
#X connect 2 0 1 1;
#X connect 3 0 1 1;
#X connect 4 0 5 0;
#X connect 5 0 6 0;
#X connect 5 0 6 1;
#X connect 7 0 9 0;
#X connect 8 0 46 0;
#X connect 10 0 1 0;
#X connect 11 0 4 0;
#X connect 12 0 11 1;
#X connect 13 0 11 1;
#X connect 14 0 16 0;
#X connect 15 0 17 0;
#X connect 17 0 14 0;
#X connect 17 0 13 0;
#X connect 17 0 19 0;
#X connect 17 0 24 0;
#X connect 18 0 8 0;
#X connect 18 0 15 0;
#X connect 18 0 39 0;
#X connect 18 0 41 0;
#X connect 19 0 12 0;
#X connect 20 0 21 0;
#X connect 20 0 26 0;
#X connect 21 0 27 0;
#X connect 22 0 28 0;
#X connect 23 0 29 0;
#X connect 24 0 20 0;
#X connect 25 0 20 1;
#X connect 26 0 20 1;
#X connect 27 0 22 0;
#X connect 28 0 23 0;
#X connect 29 0 42 0;
#X connect 32 0 43 0;
#X connect 33 0 34 0;
#X connect 34 0 35 0;
#X connect 34 0 36 0;
#X connect 35 0 4 0;
#X connect 36 0 37 0;
#X connect 37 0 40 0;
#X connect 38 0 32 0;
#X connect 39 0 38 0;
#X connect 40 0 4 0;
#X connect 41 0 4 1;
#X connect 42 0 11 0;
#X connect 43 0 33 0;
#X connect 45 0 2 0;
#X connect 46 0 7 0;
#X connect 46 0 3 0;
#X connect 46 0 45 0;
