#N canvas 707 420 909 527 12;
#X obj 144 128 osc~;
#X obj 142 245 *~;
#X obj 153 309 dac~;
#X obj 193 14 bng 19 250 50 0 empty empty empty 0 -10 0 12 #fcfcfc #000000 #000000;
#X obj 358 181 vline~;
#X obj 142 154 *~ 1000;
#X msg 171 52 40;
#X obj 138 195 clip~ 0 0.6;
#X msg 378 104 1 10 \, 0 20 10;
#X connect 0 0 5 0;
#X connect 1 0 2 0;
#X connect 1 0 2 1;
#X connect 3 0 6 0;
#X connect 3 0 8 0;
#X connect 4 0 1 1;
#X connect 5 0 7 0;
#X connect 6 0 0 0;
#X connect 7 0 1 0;
#X connect 8 0 4 0;
