#N canvas 1128 100 730 543 12;
#X obj 396 328 vline~;
#X obj 285 364 *~;
#X obj 277 460 dac~;
#X obj 309 125 bng 15 250 50 0 empty empty empty 17 7 0 10 #fcfcfc #000000 #000000;
#X obj 286 221 noise~;
#X obj 284 277 *~ 1000;
#N canvas 654 306 740 505 reverb 1;
#X obj 162 49 inlet~;
#X obj 144 364 outlet~;
#X floatatom 444 156 0 0 120 0 - - - 0;
#X text 485 156 level \, dB;
#X floatatom 472 173 0 0 100 0 - - - 0;
#X text 513 173 liveness \, 0-100;
#X floatatom 507 197 4 0 5000 0 - - - 0;
#X floatatom 542 220 0 0 100 0 - - - 0;
#X text 555 195 crossover frequency \, Hz.;
#X text 578 222 HF damping \, percent;
#X obj 235 233 rev3~ 100 90 3000 20;
#X obj 247 331 *~;
#X floatatom 317 299 5 0 0 0 - - - 0;
#X obj 26 288 *~;
#X floatatom 66 261 5 0 0 0 - - - 0;
#X text 355 299 wet reverb signal;
#X text 103 264 "dry" signal;
#X obj 409 32 receive reverbWetDry;
#X floatatom 410 59 5 0 0 0 - - - 0;
#X obj 82 215 expr 1 - $f1;
#X obj 340 3 loadbang;
#X msg 340 33 0.2;
#X connect 0 0 13 0;
#X connect 0 0 10 0;
#X connect 2 0 10 2;
#X connect 4 0 10 3;
#X connect 6 0 10 4;
#X connect 7 0 10 5;
#X connect 10 0 11 0;
#X connect 10 1 11 0;
#X connect 10 2 11 0;
#X connect 10 3 11 0;
#X connect 11 0 1 0;
#X connect 12 0 11 1;
#X connect 13 0 1 0;
#X connect 14 0 13 1;
#X connect 17 0 18 0;
#X connect 18 0 12 0;
#X connect 18 0 19 0;
#X connect 19 0 14 0;
#X connect 20 0 21 0;
#X connect 21 0 18 0;
#X restore 272 405 pd reverb;
#X obj 283 318 clip~ 0 1;
#X msg 420 193 1 0 \, 0 100 0 \, 0.3 50 150 \, 0 100 250;
#X connect 0 0 1 1;
#X connect 1 0 6 0;
#X connect 3 0 4 0;
#X connect 3 0 8 0;
#X connect 4 0 5 0;
#X connect 5 0 7 0;
#X connect 6 0 2 0;
#X connect 6 0 2 1;
#X connect 7 0 1 0;
#X connect 8 0 0 0;
