#N canvas 51 92 1920 1041 12;
#X obj 396 328 vline~;
#X obj 260 364 *~;
#X obj 277 410 dac~;
#X obj 310 125 bng 15 250 50 0 empty empty empty 17 7 0 10 #fcfcfc #000000 #000000;
#X obj 264 269 *~ 1000;
#X obj 271 228 osc~;
#X obj 251 316 clip~ 0 1;
#X obj 290 192 mtof;
#X obj 373 126 bng 15 250 50 0 empty empty empty 17 7 0 10 #fcfcfc #000000 #000000;
#X obj 462 124 bng 15 250 50 0 empty empty empty 17 7 0 10 #fcfcfc #000000 #000000;
#X obj 360 160 delay 100;
#X msg 292 168 75;
#X msg 360 195 56;
#X msg 421 193 1 0 \, 0 275 0;
#X connect 0 0 1 1;
#X connect 1 0 2 0;
#X connect 1 0 2 1;
#X connect 3 0 13 0;
#X connect 3 0 11 0;
#X connect 4 0 6 0;
#X connect 5 0 4 0;
#X connect 6 0 1 0;
#X connect 7 0 5 0;
#X connect 8 0 13 0;
#X connect 8 0 11 0;
#X connect 8 0 10 0;
#X connect 9 0 13 0;
#X connect 10 0 12 0;
#X connect 11 0 7 0;
#X connect 12 0 7 0;
#X connect 13 0 0 0;
